<svg width="33" height="32" viewBox="0 0 33 32" fill="none" xmlns="http://www.w3.org/2000/svg">
<g id="arrow-forward-circle">
<path id="Vector" d="M29.9062 16C29.9062 8.82062 23.9037 3 16.5 3C9.09627 3 3.09375 8.82062 3.09375 16C3.09375 23.1794 9.09627 29 16.5 29C23.9037 29 29.9062 23.1794 29.9062 16ZM16.2003 21.71C16.1041 21.6175 16.0277 21.5076 15.9754 21.3864C15.923 21.2653 15.8958 21.1353 15.8953 21.004C15.8947 20.8726 15.9209 20.7425 15.9722 20.6209C16.0236 20.4994 16.0991 20.3889 16.1945 20.2956L19.5667 17H10.957C10.6835 17 10.4212 16.8946 10.2278 16.7071C10.0344 16.5196 9.92578 16.2652 9.92578 16C9.92578 15.7348 10.0344 15.4804 10.2278 15.2929C10.4212 15.1054 10.6835 15 10.957 15H19.5667L16.1945 11.7044C16.0991 11.6111 16.0236 11.5004 15.9723 11.3788C15.921 11.2572 15.8949 11.127 15.8955 10.9956C15.8961 10.8642 15.9234 10.7342 15.9758 10.613C16.0282 10.4918 16.1047 10.3819 16.2009 10.2894C16.2972 10.1969 16.4113 10.1237 16.5367 10.0739C16.6621 10.0242 16.7964 9.99886 16.9319 9.99944C17.2055 10.0006 17.4675 10.1072 17.6602 10.2956L22.7771 15.2956C22.9688 15.4829 23.0763 15.7361 23.0763 16C23.0763 16.2639 22.9688 16.5171 22.7771 16.7044L17.6602 21.7044C17.5648 21.7978 17.4513 21.8721 17.3262 21.923C17.2012 21.9738 17.067 22.0003 16.9314 22.0008C16.7958 22.0013 16.6615 21.9759 16.536 21.926C16.4105 21.8761 16.2965 21.8027 16.2003 21.71Z" fill="#5A6372"/>
</g>
</svg>
