<svg width="32" height="32" viewBox="0 0 32 32" fill="none" xmlns="http://www.w3.org/2000/svg">
<g id="logo-pinterest">
<path id="Vector" d="M16.0032 2C8.27192 2 2.00317 8.26875 2.00317 16C2.00317 21.7313 5.45317 26.6562 10.3844 28.825C10.3469 27.85 10.3782 26.675 10.6282 25.6125C10.8969 24.475 12.4282 17.9813 12.4282 17.9813C12.4282 17.9813 11.9782 17.0875 11.9782 15.7688C11.9782 13.6938 13.1782 12.1438 14.6782 12.1438C15.9532 12.1438 16.5657 13.1 16.5657 14.2437C16.5657 15.525 15.7469 17.4375 15.3282 19.2125C14.9782 20.7 16.0719 21.9062 17.5407 21.9062C20.1907 21.9062 21.9782 18.5 21.9782 14.4625C21.9782 11.3937 19.9094 9.1 16.1532 9.1C11.9094 9.1 9.25942 12.2687 9.25942 15.8062C9.25942 17.025 9.62192 17.8875 10.1844 18.55C10.4407 18.8562 10.4782 18.9812 10.3844 19.3312C10.3157 19.5875 10.1657 20.2062 10.0969 20.4562C10.0032 20.8125 9.71567 20.9375 9.39692 20.8062C7.44067 20.0063 6.52817 17.8687 6.52817 15.4563C6.52817 11.4813 9.88442 6.7125 16.5344 6.7125C21.8782 6.7125 25.3969 10.5812 25.3969 14.7312C25.3969 20.225 22.3407 24.325 17.8407 24.325C16.3282 24.325 14.9094 23.5062 14.4219 22.5812C14.4219 22.5812 13.6094 25.8062 13.4344 26.4312C13.1407 27.5125 12.5594 28.5875 12.0282 29.4312C13.3169 29.8114 14.6533 30.0051 15.9969 30.0063C23.7282 30.0063 29.9969 23.7375 29.9969 16.0063C29.9969 8.275 23.7344 2 16.0032 2Z" fill="white"/>
</g>
</svg>
