<svg width="16" height="16" viewBox="0 0 16 16" fill="none" xmlns="http://www.w3.org/2000/svg">
<g id="person-add-outline">
<path id="Vector" d="M11.75 4.5C11.6275 6.15219 10.375 7.5 9.00003 7.5C7.62503 7.5 6.37034 6.1525 6.25003 4.5C6.12503 2.78125 7.34378 1.5 9.00003 1.5C10.6563 1.5 11.875 2.8125 11.75 4.5Z" stroke="#326FCD" stroke-linecap="round" stroke-linejoin="round"/>
<path id="Vector_2" d="M8.99998 9.5C6.28123 9.5 3.52185 11 3.01123 13.8313C2.94873 14.1725 3.14279 14.5 3.50029 14.5H14.5C14.8575 14.5 15.0506 14.1725 14.989 13.8313C14.4781 11 11.7187 9.5 8.99998 9.5Z" stroke="#326FCD" stroke-miterlimit="10"/>
<path id="Vector_3" d="M2.75 5.5V9M4.5 7.25H1" stroke="#326FCD" stroke-linecap="round" stroke-linejoin="round"/>
</g>
</svg>
